# xmcd
#
# Track frame offsets: 
#        150
#        450
#        22847
#        36652
#        49982
#        68032
#        95514
#        115289
#        115589
#        133840
#        148187
#        163773
#        191415
#        209503
#
# Disc length: 2990 seconds
#
# Revision: 0
# Processed by: cddbd v1.5.2PL0 Copyright (c) Steve Scherf et al.
# Submitted via: ExactAudioCopy v1.3
#
DISCID=c80bac0e
DTITLE=Cal Valentine - The Texas Rocker
DYEAR=1994
DGENRE=Texas Blues
TTITLE0=Lucy Mae Blues
TTITLE1=Slow Dance
TTITLE2=Well I Done Got Over It
TTITLE3=Boogie Twis '94
TTITLE4=Rock Me Baby
TTITLE5=Trouble No More
TTITLE6=Mojo Hand
TTITLE7=You don't Have To Go
TTITLE8=The things I Used To Do
TTITLE9=Please Love Me
TTITLE10=I'm A Man
TTITLE11=Rockin' Blues
TTITLE12=Right Now !!
TTITLE13=Don't Let The Devil Ride
EXTD=
EXTT0=
EXTT1=
EXTT2=
EXTT3=
EXTT4=
EXTT5=
EXTT6=
EXTT7=
EXTT8=
EXTT9=
EXTT10=
EXTT11=
EXTT12=
EXTT13=
PLAYORDER=
